G04 Layer: TopSilkLayer*
G04 EasyEDA v6.2.46, 2019-12-16T18:13:11+02:00*
G04 4f520af787a2458aba7336f494d3e8d0,9a472788fb3748f5b1af1517000a09b8,10*
G04 Gerber Generator version 0.2*
G04 Scale: 100 percent, Rotated: No, Reflected: No *
G04 Dimensions in millimeters *
G04 leading zeros omitted , absolute positions ,3 integer and 3 decimal *
%FSLAX33Y33*%
%MOMM*%
G90*
G71D02*

%ADD10C,0.254000*%
%ADD15C,0.152400*%

%LPD*%
G54D10*
G01X8942Y24359D02*
G01X8670Y24359D01*
G01X6569Y24359D02*
G01X6297Y24359D01*
G01X14022Y24359D02*
G01X13750Y24359D01*
G01X11649Y24359D02*
G01X11377Y24359D01*
G01X19102Y24359D02*
G01X18830Y24359D01*
G01X16729Y24359D02*
G01X16457Y24359D01*
G01X17780Y3683D02*
G01X7620Y3683D01*
G01X7620Y6223D01*
G01X17780Y6223D01*
G01X17780Y3683D01*
G01X15240Y3683D02*
G01X15240Y6223D01*
G01X6858Y10160D02*
G01X6858Y15240D01*
G01X6858Y15240D02*
G01X7620Y15240D01*
G01X7620Y15240D02*
G01X8382Y15240D01*
G01X8382Y15240D02*
G01X8382Y10160D01*
G01X8382Y10160D02*
G01X7620Y10160D01*
G01X7620Y10160D02*
G01X6858Y10160D01*
G01X7620Y15240D02*
G01X7620Y15494D01*
G01X7620Y10160D02*
G01X7620Y9906D01*
G01X11938Y10160D02*
G01X11938Y15240D01*
G01X11938Y15240D02*
G01X12700Y15240D01*
G01X12700Y15240D02*
G01X13462Y15240D01*
G01X13462Y15240D02*
G01X13462Y10160D01*
G01X13462Y10160D02*
G01X12700Y10160D01*
G01X12700Y10160D02*
G01X11938Y10160D01*
G01X12700Y15240D02*
G01X12700Y15494D01*
G01X12700Y10160D02*
G01X12700Y9906D01*
G01X17018Y10160D02*
G01X17018Y15240D01*
G01X17018Y15240D02*
G01X17780Y15240D01*
G01X17780Y15240D02*
G01X18542Y15240D01*
G01X18542Y15240D02*
G01X18542Y10160D01*
G01X18542Y10160D02*
G01X17780Y10160D01*
G01X17780Y10160D02*
G01X17018Y10160D01*
G01X17780Y15240D02*
G01X17780Y15494D01*
G01X17780Y10160D02*
G01X17780Y9906D01*
G54D15*
G01X3556Y20358D02*
G01X3556Y19268D01*
G01X3556Y19268D02*
G01X4178Y19268D01*
G01X4521Y20358D02*
G01X4521Y19268D01*
G01X4521Y20358D02*
G01X5196Y20358D01*
G01X4521Y19839D02*
G01X4937Y19839D01*
G01X4521Y19268D02*
G01X5196Y19268D01*
G01X5539Y20358D02*
G01X5539Y19268D01*
G01X5539Y20358D02*
G01X5905Y20358D01*
G01X6060Y20307D01*
G01X6164Y20203D01*
G01X6215Y20099D01*
G01X6268Y19944D01*
G01X6268Y19685D01*
G01X6215Y19527D01*
G01X6164Y19423D01*
G01X6060Y19319D01*
G01X5905Y19268D01*
G01X5539Y19268D01*
G01X6611Y20152D02*
G01X6715Y20203D01*
G01X6870Y20358D01*
G01X6870Y19268D01*
G01X8382Y20358D02*
G01X8382Y19268D01*
G01X8382Y19268D02*
G01X9004Y19268D01*
G01X9347Y20358D02*
G01X9347Y19268D01*
G01X9347Y20358D02*
G01X10022Y20358D01*
G01X9347Y19839D02*
G01X9763Y19839D01*
G01X9347Y19268D02*
G01X10022Y19268D01*
G01X10365Y20358D02*
G01X10365Y19268D01*
G01X10365Y20358D02*
G01X10731Y20358D01*
G01X10886Y20307D01*
G01X10990Y20203D01*
G01X11041Y20098D01*
G01X11094Y19944D01*
G01X11094Y19684D01*
G01X11041Y19527D01*
G01X10990Y19423D01*
G01X10886Y19319D01*
G01X10731Y19268D01*
G01X10365Y19268D01*
G01X11488Y20098D02*
G01X11488Y20152D01*
G01X11541Y20256D01*
G01X11592Y20307D01*
G01X11696Y20358D01*
G01X11904Y20358D01*
G01X12009Y20307D01*
G01X12059Y20256D01*
G01X12113Y20152D01*
G01X12113Y20048D01*
G01X12059Y19944D01*
G01X11955Y19786D01*
G01X11437Y19268D01*
G01X12164Y19268D01*
G01X13462Y20320D02*
G01X13462Y19230D01*
G01X13462Y19230D02*
G01X14084Y19230D01*
G01X14427Y20320D02*
G01X14427Y19230D01*
G01X14427Y20320D02*
G01X15102Y20320D01*
G01X14427Y19801D02*
G01X14843Y19801D01*
G01X14427Y19230D02*
G01X15102Y19230D01*
G01X15445Y20320D02*
G01X15445Y19230D01*
G01X15445Y20320D02*
G01X15811Y20320D01*
G01X15966Y20269D01*
G01X16070Y20165D01*
G01X16121Y20060D01*
G01X16174Y19906D01*
G01X16174Y19646D01*
G01X16121Y19489D01*
G01X16070Y19385D01*
G01X15966Y19281D01*
G01X15811Y19230D01*
G01X15445Y19230D01*
G01X16621Y20320D02*
G01X17193Y20320D01*
G01X16880Y19906D01*
G01X17035Y19906D01*
G01X17139Y19852D01*
G01X17193Y19801D01*
G01X17244Y19646D01*
G01X17244Y19542D01*
G01X17193Y19385D01*
G01X17089Y19281D01*
G01X16931Y19230D01*
G01X16776Y19230D01*
G01X16621Y19281D01*
G01X16568Y19334D01*
G01X16517Y19438D01*
G01X11369Y3429D02*
G01X11369Y2339D01*
G01X12095Y3429D02*
G01X12095Y2339D01*
G01X11369Y2910D02*
G01X12095Y2910D01*
G01X12438Y3223D02*
G01X12542Y3274D01*
G01X12700Y3429D01*
G01X12700Y2339D01*
G01X5234Y12700D02*
G01X6324Y12700D01*
G01X5234Y12700D02*
G01X5234Y13167D01*
G01X5285Y13322D01*
G01X5336Y13375D01*
G01X5440Y13426D01*
G01X5544Y13426D01*
G01X5648Y13375D01*
G01X5702Y13322D01*
G01X5753Y13167D01*
G01X5753Y12700D01*
G01X5753Y13063D02*
G01X6324Y13426D01*
G01X5440Y13769D02*
G01X5389Y13873D01*
G01X5234Y14030D01*
G01X6324Y14030D01*
G01X10314Y12700D02*
G01X11404Y12700D01*
G01X10314Y12700D02*
G01X10314Y13167D01*
G01X10365Y13322D01*
G01X10416Y13375D01*
G01X10520Y13426D01*
G01X10624Y13426D01*
G01X10728Y13375D01*
G01X10782Y13322D01*
G01X10833Y13167D01*
G01X10833Y12700D01*
G01X10833Y13063D02*
G01X11404Y13426D01*
G01X10574Y13822D02*
G01X10520Y13822D01*
G01X10416Y13873D01*
G01X10365Y13926D01*
G01X10314Y14030D01*
G01X10314Y14236D01*
G01X10365Y14340D01*
G01X10416Y14394D01*
G01X10520Y14444D01*
G01X10624Y14444D01*
G01X10728Y14394D01*
G01X10886Y14290D01*
G01X11404Y13769D01*
G01X11404Y14498D01*
G01X15394Y12700D02*
G01X16484Y12700D01*
G01X15394Y12700D02*
G01X15394Y13167D01*
G01X15445Y13322D01*
G01X15496Y13375D01*
G01X15600Y13426D01*
G01X15704Y13426D01*
G01X15808Y13375D01*
G01X15862Y13322D01*
G01X15913Y13167D01*
G01X15913Y12700D01*
G01X15913Y13063D02*
G01X16484Y13426D01*
G01X15394Y13873D02*
G01X15394Y14444D01*
G01X15808Y14135D01*
G01X15808Y14290D01*
G01X15862Y14394D01*
G01X15913Y14444D01*
G01X16068Y14498D01*
G01X16172Y14498D01*
G01X16329Y14444D01*
G01X16433Y14340D01*
G01X16484Y14185D01*
G01X16484Y14030D01*
G01X16433Y13873D01*
G01X16380Y13822D01*
G01X16276Y13769D01*
G54D10*
G75*
G01X8580Y21106D02*
G03X8943Y24360I-960J1754D01*
G01*
G75*
G01X6297Y24360D02*
G03X6660Y21106I1323J-1500D01*
G01*
G75*
G01X13660Y21106D02*
G03X14023Y24360I-960J1754D01*
G01*
G75*
G01X11377Y24360D02*
G03X11740Y21106I1323J-1500D01*
G01*
G75*
G01X18740Y21106D02*
G03X19103Y24360I-960J1754D01*
G01*
G75*
G01X16457Y24360D02*
G03X16820Y21106I1323J-1500D01*
G01*
M00*
M02*
